# xmcd CD database file
#
# Track frame offsets:
#	150
#	17765
#	34912
#	49549
#	66960
#	84715
#	102536
#	120378
#	138904
#	157736
#	175055
#	193929
#
# Disc length: 3011 seconds
#
# Revision: 3
# Processed by: cddbd v1.5.1PL2 Copyright (c) Steve Scherf et al.
# Submitted via: CDex 1.51
#
DISCID=9b0bc10c
DTITLE=Pilot - Blue Yonder
DYEAR=2002
DGENRE=Rock
TTITLE0=Get Up and Go
TTITLE1=Library Door
TTITLE2=Creeping 'round at Midnight
TTITLE3=One Good Reason Why
TTITLE4=There's a Place
TTITLE5=I Wonder
TTITLE6=Monday Tuesday
TTITLE7=Ten Feet Tall
TTITLE8=Evil Eye
TTITLE9=When the Sun Comes
TTITLE10=Lovely Lady Smile
TTITLE11=Hold Me (Pilot Live in 1975)
EXTD=YEAR: 2002
EXTT0=
EXTT1=
EXTT2=
EXTT3=
EXTT4=
EXTT5=
EXTT6=
EXTT7=
EXTT8=
EXTT9=
EXTT10=
EXTT11=
PLAYORDER=
